<?xml version="1.0" encoding="UTF-8" standalone="no"?>
<!-- Generator: Fusion 360, Shaper Origin Export Add-In, Version 1.5.0  -->

<svg
   enable-background="new 0 0 16 1.9"
   height="148mm"
   shaper:fusionaddin="version:1.5.0"
   version="1.1"
   viewBox="0 0 21 14.8"
   width="210mm"
   x="0cm"
   xml:space="preserve"
   y="0cm"
   id="svg4"
   sodipodi:docname="all.svg"
   inkscape:version="1.2-dev (5378086, 2021-06-27)"
   xmlns:inkscape="http://www.inkscape.org/namespaces/inkscape"
   xmlns:sodipodi="http://sodipodi.sourceforge.net/DTD/sodipodi-0.dtd"
   xmlns="http://www.w3.org/2000/svg"
   xmlns:svg="http://www.w3.org/2000/svg"
   xmlns:shaper="http://www.shapertools.com/namespaces/shaper"><defs
     id="defs8" /><sodipodi:namedview
     id="namedview6"
     pagecolor="#ffffff"
     bordercolor="#666666"
     borderopacity="1.0"
     inkscape:pageshadow="2"
     inkscape:pageopacity="0.0"
     inkscape:pagecheckerboard="0"
     inkscape:document-units="cm"
     showgrid="false"
     units="mm"
     inkscape:zoom="0.91694662"
     inkscape:cx="367.52412"
     inkscape:cy="308.63302"
     inkscape:window-width="1920"
     inkscape:window-height="976"
     inkscape:window-x="-8"
     inkscape:window-y="-8"
     inkscape:window-maximized="1"
     inkscape:current-layer="svg4"
     inkscape:snap-intersection-paths="true" /><path
     d="m 12.767583,2.0990526 a 0.2,0.2 0 0 0 -0.2,-0.2 H 8.4675833 a 0.2,0.2 0 0 0 -0.2,0.2 v 0.1 a 0.2,0.2 0 0 1 -0.2,0.2 h -5.35 a 0.2,0.2 0 0 0 -0.2,0.2 v 1 a 0.2,0.2 0 0 0 0.2,0.2 H 18.317583 a 0.2,0.2 0 0 0 0.2,-0.2 v -0.3 h -8 v -0.3 h 8 v -0.4 a 0.2,0.2 0 0 0 -0.2,-0.2 h -5.35 a 0.2,0.2 0 0 1 -0.2,-0.2 z"
     fill="#000000"
     shaper:cutDepth="0"
     shaper:pathType="exterior"
     vector-effect="non-scaling-stroke"
     id="path2"
     style="vector-effect:non-scaling-stroke;fill:none;stroke:#ed0000;stroke-width:0.00026458;stroke-miterlimit:4;stroke-dasharray:none;stroke-opacity:1;-inkscape-stroke:hairline" /><path
     d="m 11.074057,7.9367055 a 0.05,0.05 0 0 0 0.0483,0.06294 h 0.434838 v 0.5 a 0.1,0.1 0 0 0 0.1,0.1 h 1.2 a 0.1,0.1 0 0 0 0.1,-0.1 v -0.15 a 0.05,0.05 0 0 0 -0.05,-0.05 h -0.25 v -0.3 h 0.461634 a 0.05,0.05 0 0 0 0.0483,-0.03706 l 0.137148,-0.5118424 a 1.0142223,1.0142223 0 0 0 -1.959327,-0.525 z"
     fill="#000000"
     shaper:cutDepth="0"
     shaper:pathType="exterior"
     vector-effect="non-scaling-stroke"
     id="path829"
     style="vector-effect:non-scaling-stroke;fill:none;stroke:#ed0000;stroke-width:0.00026458;stroke-miterlimit:4;stroke-dasharray:none;stroke-opacity:1;-inkscape-stroke:hairline" /><path
     d="m 18.517583,4.4726324 a 0.5,0.5 0 0 0 -0.5,-0.5 h -15 a 0.5,0.5 0 0 0 -0.5,0.5 v 0.5 h 8 v 0.3 h -8 v 5.9999996 a -1,1 0 0 0 1,1 h 14 a 1,1 0 0 0 1,-1 z"
     fill="#000000"
     shaper:cutDepth="0"
     shaper:pathType="exterior"
     vector-effect="non-scaling-stroke"
     id="path838"
     style="vector-effect:non-scaling-stroke;fill:none;stroke:#ed0000;stroke-width:0.00026458;stroke-miterlimit:4;stroke-dasharray:none;stroke-opacity:1;-inkscape-stroke:hairline" /><path
     d="m 15.017583,11.672632 v -1.4 h 0.3 v 1.4 z"
     fill="#ffffff"
     shaper:cutDepth="0"
     shaper:pathType="interior"
     stroke="#000000"
     vector-effect="non-scaling-stroke"
     id="path840"
     style="vector-effect:non-scaling-stroke;fill:none;stroke:#ed0000;stroke-width:0.00026458;stroke-miterlimit:4;stroke-dasharray:none;stroke-opacity:1;-inkscape-stroke:hairline" /><path
     d="m 5.717583,11.672632 v -1.4 h 0.3 v 1.4 z"
     fill="#ffffff"
     shaper:cutDepth="0"
     shaper:pathType="interior"
     stroke="#000000"
     vector-effect="non-scaling-stroke"
     id="path842"
     style="vector-effect:non-scaling-stroke;fill:none;stroke:#ed0000;stroke-width:0.00026458;stroke-miterlimit:4;stroke-dasharray:none;stroke-opacity:1;-inkscape-stroke:hairline" /><path
     d="m 5.717583,9.8726324 v -1.4 h 0.3 v 1.4 z"
     fill="#ffffff"
     shaper:cutDepth="0"
     shaper:pathType="interior"
     stroke="#000000"
     vector-effect="non-scaling-stroke"
     id="path844"
     style="vector-effect:non-scaling-stroke;fill:none;stroke:#ed0000;stroke-width:0.00026458;stroke-miterlimit:4;stroke-dasharray:none;stroke-opacity:1;-inkscape-stroke:hairline" /><path
     d="m 15.317583,8.0726324 h -0.3 v -1.4 h 0.3 z"
     fill="#ffffff"
     shaper:cutDepth="0"
     shaper:pathType="interior"
     stroke="#000000"
     vector-effect="non-scaling-stroke"
     id="path846"
     style="vector-effect:non-scaling-stroke;fill:none;stroke:#ed0000;stroke-width:0.00026458;stroke-miterlimit:4;stroke-dasharray:none;stroke-opacity:1;-inkscape-stroke:hairline" /><path
     d="m 6.017583,8.0726324 h -0.3 v -1.4 h 0.3 z"
     fill="#ffffff"
     shaper:cutDepth="0"
     shaper:pathType="interior"
     stroke="#000000"
     vector-effect="non-scaling-stroke"
     id="path848"
     style="vector-effect:non-scaling-stroke;fill:none;stroke:#ed0000;stroke-width:0.00026458;stroke-miterlimit:4;stroke-dasharray:none;stroke-opacity:1;-inkscape-stroke:hairline" /><path
     d="m 15.017583,9.8726324 v -1.4 h 0.3 v 1.4 z"
     fill="#ffffff"
     shaper:cutDepth="0"
     shaper:pathType="interior"
     stroke="#000000"
     vector-effect="non-scaling-stroke"
     id="path850"
     style="vector-effect:non-scaling-stroke;fill:none;stroke:#ed0000;stroke-width:0.00026458;stroke-miterlimit:4;stroke-dasharray:none;stroke-opacity:1;-inkscape-stroke:hairline" /><path
     d="m 10.422733,9.5273875 a 0.05,0.05 0 0 0 -0.0483,-0.06294 H 9.9395952 v -0.5 a 0.1,0.1 0 0 0 -0.1,-0.1 h -1.2 a 0.1,0.1 0 0 0 -0.1,0.1 v 0.15 a 0.05,0.05 0 0 0 0.05,0.05 h 0.25 v 0.3 h -0.461634 a 0.05,0.05 0 0 0 -0.0483,0.03706 L 8.1925127,10.013351 a 1.0142225,1.0142225 0 0 0 1.9593273,0.525 z"
     fill="#000000"
     shaper:cutDepth="0"
     shaper:pathType="exterior"
     vector-effect="non-scaling-stroke"
     id="path1188"
     style="vector-effect:non-scaling-stroke;fill:none;stroke:#ed0000;stroke-width:0.00026458;stroke-miterlimit:4;stroke-dasharray:none;stroke-opacity:1;-inkscape-stroke:hairline" /><path
     d="m 10.422733,7.9366205 a 0.05,0.05 0 0 1 -0.0483,0.06294 H 9.9395952 v 0.5 a 0.1,0.1 0 0 1 -0.1,0.1 h -1.2 a 0.1,0.1 0 0 1 -0.1,-0.1 v -0.15 a 0.05,0.05 0 0 1 0.05,-0.05 h 0.25 v -0.3 h -0.461634 a 0.05,0.05 0 0 1 -0.0483,-0.03706 L 8.1925127,7.4506588 A 1.0142225,1.0142225 0 0 1 10.15184,6.9256593 Z"
     fill="#000000"
     shaper:cutDepth="0"
     shaper:pathType="exterior"
     vector-effect="non-scaling-stroke"
     id="path1190"
     style="vector-effect:non-scaling-stroke;fill:none;stroke:#ed0000;stroke-width:0.00026458;stroke-miterlimit:4;stroke-dasharray:none;stroke-opacity:1;-inkscape-stroke:hairline" /><path
     d="m 11.063121,9.5773875 a 0.05,0.05 0 0 1 0.0483,-0.06294 h 0.434837 v -0.5 a 0.1,0.1 0 0 1 0.1,-0.1 h 1.2 a 0.1,0.1 0 0 1 0.1,0.1 v 0.15 a 0.05,0.05 0 0 1 -0.05,0.05 h -0.25 v 0.3 h 0.461634 a 0.05,0.05 0 0 1 0.0483,0.03706 l 0.137145,0.5118425 a 1.0142229,1.0142229 0 0 1 -1.959328,0.525001 z"
     fill="#000000"
     shaper:cutDepth="0"
     shaper:pathType="exterior"
     vector-effect="non-scaling-stroke"
     id="path1192"
     style="vector-effect:non-scaling-stroke;fill:none;stroke:#ed0000;stroke-width:0.00026458;stroke-miterlimit:4;stroke-dasharray:none;stroke-opacity:1;-inkscape-stroke:hairline" /></svg>
